<svg width="497" height="514" viewBox="0 0 497 514" fill="none" xmlns="http://www.w3.org/2000/svg">
<path d="M212.151 97.6164C230.304 -19.6009 338.957 66.0007 391.014 123.454C485.198 250.679 435.6 317.694 409.926 357.19C365.16 426.054 259.258 531.301 131.712 424.613C4.16514 317.926 88.0447 247.116 145.928 225.047C177.723 212.925 193.998 214.834 212.151 97.6164Z" stroke="#FFCD6C" stroke-width="3.37798"/>
<path d="M230.531 131.807C245.144 36.7655 333.071 106.241 375.209 152.859C451.459 256.08 411.384 310.394 390.642 342.407C354.477 398.224 256.341 488.212 153.12 401.627C49.8988 315.042 117.698 257.669 164.5 239.806C190.209 229.994 215.918 226.849 230.531 131.807Z" fill="#FFCD6C"/>
</svg>
