<svg width="551" height="479" viewBox="0 0 551 479" fill="none" xmlns="http://www.w3.org/2000/svg">
<path d="M124.339 350.936C130.295 278.933 57.9908 109.748 221.047 136.034C384.103 162.32 433.639 56.2604 463.558 140.1C499.125 185.686 427.994 340.372 349.847 301.114C271.701 261.855 118.383 422.94 124.339 350.936Z" fill="#90C5D3"/>
<path d="M485.983 146.34L486.059 146.601L486.232 146.822C490.249 151.97 492.492 158.993 493.084 167.408C493.675 175.812 492.611 185.503 490.117 195.88C485.129 216.634 474.467 239.958 460.229 260.897C445.984 281.845 428.232 300.302 409.134 311.421C390.055 322.529 369.802 326.235 350.298 318.066C329.527 309.366 302.605 314.311 274.523 324.991C246.352 335.706 216.554 352.377 189.797 367.726C187.292 369.164 184.814 370.589 182.367 371.996C158.59 385.67 137.771 397.643 123.137 402.701C119.122 404.089 115.657 404.925 112.783 405.15C109.9 405.376 107.769 404.977 106.262 404.068C104.797 403.184 103.684 401.672 103.131 399.178C102.57 396.651 102.612 393.209 103.423 388.674C106.596 370.939 105.481 347.968 104.3 323.643C104.238 322.367 104.176 321.088 104.115 319.806C102.873 293.977 101.794 266.772 105.681 242.325C109.568 217.885 118.387 196.405 136.76 181.852C155.116 167.312 183.276 159.474 226.351 162.865C310.716 169.507 369.185 146.452 409.643 130.499C410.931 129.991 412.201 129.491 413.453 128.998C423.602 125.007 432.508 121.59 440.373 119.34C448.249 117.085 454.928 116.047 460.644 116.702C466.28 117.347 471.062 119.646 475.204 124.268C479.393 128.944 482.969 136.046 485.983 146.34Z" stroke="#90C5D3" stroke-width="3"/>
</svg>
