<svg width="596" height="589" viewBox="0 0 596 589" fill="none" xmlns="http://www.w3.org/2000/svg">
<path d="M430.021 483.957C384.36 498.305 279.403 520.436 241.928 504.63C213.449 492.618 189.204 437.876 192.466 417.104C194.576 383.249 192.405 331.663 134.036 325.364C75.6676 319.064 71.3712 261.423 78.5306 227.51" stroke="#F2764F" stroke-width="3"/>
<path d="M239.234 477.857C268.01 500.132 366.526 477.005 412.187 462.657L475.398 408.652C539.968 287.537 536.248 228.697 436 145C259.036 31.4179 183.442 46.122 92.1756 214.775L89.2408 228.676C84.97 250.778 91.0205 296.558 149.389 302.857C207.758 309.157 217.893 359.744 213.049 387.7C209.787 408.472 210.458 455.583 239.234 477.857Z" fill="#F2764F"/>
</svg>
